<svg width="39" height="45" viewBox="0 0 39 45" fill="none" xmlns="http://www.w3.org/2000/svg">
<path d="M19.1699 0.0769161L0.292629 10.9783C0.202353 11.0298 0.127571 11.1046 0.0761055 11.1949C0.0246399 11.2852 -0.00161836 11.3877 7.72116e-05 11.4916V33.279C-0.00107848 33.3828 0.0254085 33.4851 0.0768199 33.5753C0.128231 33.6655 0.202716 33.7403 0.292629 33.7923L18.5848 44.3447C18.6739 44.3967 18.7752 44.4241 18.8783 44.4239C18.9814 44.4238 19.0827 44.3961 19.1716 44.3439C19.2605 44.2916 19.3338 44.2165 19.384 44.1264C19.4343 44.0364 19.4596 43.9345 19.4574 43.8314V39.2635C19.4596 39.1601 19.4341 39.058 19.3835 38.9677C19.333 38.8775 19.2593 38.8024 19.1699 38.7502L5.41999 30.8205C5.32971 30.7691 5.25493 30.6942 5.20346 30.604C5.152 30.5137 5.12574 30.4112 5.12744 30.3073V14.4428C5.12574 14.3388 5.152 14.2364 5.20346 14.1461C5.25493 14.0558 5.32971 13.981 5.41999 13.9295L19.1699 5.99981C19.2583 5.94941 19.3582 5.9229 19.4599 5.9229C19.5616 5.9229 19.6616 5.94941 19.7499 5.99981L33.4998 13.9398C33.5901 13.9913 33.6649 14.0661 33.7164 14.1564C33.7678 14.2466 33.7941 14.3491 33.7924 14.453V30.3176C33.7896 30.4211 33.8149 30.5234 33.8655 30.6137C33.9161 30.7041 33.9901 30.7791 34.0798 30.8308L38.0472 33.1199C38.1363 33.1719 38.2376 33.1993 38.3407 33.1992C38.4439 33.199 38.5451 33.1714 38.634 33.1191C38.7229 33.0668 38.7962 32.9918 38.8465 32.9017C38.8967 32.8116 38.922 32.7098 38.9198 32.6066V11.4813C38.9215 11.3774 38.8952 11.2749 38.8437 11.1846C38.7923 11.0944 38.7175 11.0196 38.6272 10.9681L19.7499 0.0769161C19.6616 0.0265102 19.5616 0 19.4599 0C19.3582 0 19.2583 0.0265102 19.1699 0.0769161Z" fill="white"/>
</svg>
